<svg xmlns="http://www.w3.org/2000/svg" version="1.1" viewBox="-5.0 -10.0 110.0 135.0">
 <path d="m84.723 47.223c0.76953 0 1.3906-0.62109 1.3906-1.3906 0-22.207-18.07-40.277-40.277-40.277-22.211 0-40.281 18.07-40.281 40.277s18.07 40.277 40.277 40.277c0.76562 0 1.3906-0.62109 1.3906-1.3906v-37.5h37.5zm-70.797-2.7773c0.71094-16.512 14.008-29.809 30.52-30.52v30.52zm30.52 2.7773v30.52c-16.512-0.71094-29.809-14.008-30.52-30.52zm2.7773-33.297c16.512 0.71094 29.809 14.008 30.52 30.52h-30.52zm-38.891 31.906c0-20.676 16.824-37.5 37.5-37.5 20.215 0 36.742 16.074 37.473 36.109h-2.7891c-0.73438-18.504-16.008-33.332-34.688-33.332-19.145 0-34.723 15.574-34.723 34.723 0 18.68 14.828 33.953 33.332 34.688v2.7891c-20.039-0.73047-36.109-17.262-36.109-37.473z"/>
 <path d="m93.055 52.777h-38.891c-0.76953 0-1.3906 0.62109-1.3906 1.3906v38.891c0 0.76953 0.62109 1.3906 1.3906 1.3906 22.207 0 40.277-18.07 40.277-40.277 0-0.76953-0.62109-1.3906-1.3906-1.3906zm-6.9805 2.7773c-0.71094 16.512-14.008 29.809-30.52 30.52v-30.52zm-30.52 36.086v-2.7773c18.043-0.71484 32.594-15.262 33.305-33.305h2.7773c-0.71484 19.578-16.508 35.371-36.086 36.086z"/>
 <path d="m26.391 30.555c-3.0625 0-5.5547 2.4922-5.5547 5.5547s2.4922 5.5547 5.5547 5.5547 5.5547-2.4922 5.5547-5.5547-2.4922-5.5547-5.5547-5.5547zm0 8.3359c-1.5312 0-2.7773-1.2461-2.7773-2.7773s1.2461-2.7773 2.7773-2.7773 2.7773 1.2461 2.7773 2.7773-1.2461 2.7773-2.7773 2.7773z"/>
 <path d="m38.891 25c-2.2969 0-4.168 1.8672-4.168 4.168 0 2.2969 1.8672 4.168 4.168 4.168 2.2969 0 4.168-1.8672 4.168-4.168 0-2.2969-1.8672-4.168-4.168-4.168zm0 5.5547c-0.76562 0-1.3906-0.62109-1.3906-1.3906 0-0.76562 0.625-1.3906 1.3906-1.3906s1.3906 0.62109 1.3906 1.3906c0 0.76563-0.625 1.3906-1.3906 1.3906z"/>
 <path d="m52.777 30.555c-2.2969 0-4.168 1.8672-4.168 4.168 0 2.2969 1.8672 4.168 4.168 4.168 2.2969 0 4.168-1.8672 4.168-4.168 0-2.2969-1.8672-4.168-4.168-4.168zm0 5.5547c-0.76562 0-1.3906-0.62109-1.3906-1.3906 0-0.76562 0.62109-1.3906 1.3906-1.3906 0.76562 0 1.3906 0.62109 1.3906 1.3906 0 0.76562-0.62109 1.3906-1.3906 1.3906z"/>
 <path d="m55.555 18.055c-2.2969 0-4.168 1.8672-4.168 4.168 0 2.2969 1.8672 4.168 4.168 4.168 2.2969 0 4.168-1.8672 4.168-4.168 0-2.2969-1.8672-4.168-4.168-4.168zm0 5.5547c-0.76563 0-1.3906-0.62109-1.3906-1.3906 0-0.76562 0.62109-1.3906 1.3906-1.3906 0.76562 0 1.3906 0.62109 1.3906 1.3906 0 0.76562-0.62109 1.3906-1.3906 1.3906z"/>
 <path d="m66.668 29.168c-3.0625 0-5.5547 2.4922-5.5547 5.5547s2.4922 5.5547 5.5547 5.5547 5.5547-2.4922 5.5547-5.5547-2.4922-5.5547-5.5547-5.5547zm0 8.332c-1.5312 0-2.7773-1.2461-2.7773-2.7773s1.2461-2.7773 2.7773-2.7773 2.7773 1.2461 2.7773 2.7773-1.2461 2.7773-2.7773 2.7773z"/>
 <path d="m36.109 59.723c2.2969 0 4.168-1.8672 4.168-4.168 0-2.2969-1.8672-4.168-4.168-4.168-2.2969 0-4.168 1.8672-4.168 4.168 0 2.2969 1.8672 4.168 4.168 4.168zm0-5.5547c0.76562 0 1.3906 0.62109 1.3906 1.3906 0 0.76562-0.625 1.3906-1.3906 1.3906s-1.3906-0.62109-1.3906-1.3906c0-0.76562 0.625-1.3906 1.3906-1.3906z"/>
 <path d="m26.391 56.945c0-2.2969-1.8672-4.168-4.168-4.168-2.2969 0-4.168 1.8672-4.168 4.168 0 2.2969 1.8672 4.168 4.168 4.168 2.2969 0 4.168-1.8672 4.168-4.168zm-4.168 1.3867c-0.76562 0-1.3906-0.62109-1.3906-1.3906 0-0.76562 0.625-1.3906 1.3906-1.3906s1.3906 0.62109 1.3906 1.3906c0 0.76562-0.625 1.3906-1.3906 1.3906z"/>
 <path d="m62.5 77.777c2.2969 0 4.168-1.8672 4.168-4.168 0-2.2969-1.8672-4.168-4.168-4.168-2.2969 0-4.168 1.8672-4.168 4.168 0 2.2969 1.8672 4.168 4.168 4.168zm0-5.5547c0.76562 0 1.3906 0.62109 1.3906 1.3906 0 0.76562-0.62109 1.3906-1.3906 1.3906-0.76562 0-1.3906-0.62109-1.3906-1.3906 0-0.76562 0.62109-1.3906 1.3906-1.3906z"/>
 <path d="m72.223 68.055c3.0625 0 5.5547-2.4922 5.5547-5.5547s-2.4922-5.5547-5.5547-5.5547-5.5547 2.4922-5.5547 5.5547 2.4922 5.5547 5.5547 5.5547zm0-8.332c1.5312 0 2.7773 1.2461 2.7773 2.7773s-1.2461 2.7773-2.7773 2.7773-2.7773-1.2461-2.7773-2.7773 1.2461-2.7773 2.7773-2.7773z"/>
<text x="0.0" y="117.5" font-size="5.0" font-weight="bold" font-family="Arbeit Regular, Helvetica, Arial-Unicode, Arial, Sans-serif" fill="#000000">Created by I Putu Dicky Adi Pranatha</text><text x="0.0" y="122.5" font-size="5.0" font-weight="bold" font-family="Arbeit Regular, Helvetica, Arial-Unicode, Arial, Sans-serif" fill="#000000">from Noun Project</text></svg>